<svg width="50" height="50" viewBox="0 0 50 50" fill="none" xmlns="http://www.w3.org/2000/svg">
<g clip-path="url(#clip0_6_2722)">
<path d="M16.6602 1C14.8509 1.46561 13.1516 2.28468 11.6602 3.41C9.92022 4.92 2.38022 13.89 0.320218 18.48C0.0795453 18.9875 -0.0300801 19.5472 0.00136448 20.1079C0.0328091 20.6687 0.204321 21.2126 0.500218 21.69L0.650218 21.89C1.07022 22.39 0.650218 25.17 0.650218 27.49C0.657328 28.6083 0.573721 29.7253 0.400218 30.83C0.395336 30.8799 0.395336 30.9301 0.400218 30.98C0.280218 31.85 -0.189782 35.51 1.61022 36.79C3.41022 38.07 5.46022 39.27 6.30022 40.69C7.00022 41.89 7.84022 44.58 14.8102 48C17.3974 49.2876 20.2614 49.9195 23.1502 49.84C24.2002 49.84 25.4302 49.84 26.7602 49.84C28.3502 49.92 29.7602 49.93 30.8802 49.91C33.1928 49.886 35.4417 49.1491 37.3202 47.8C40.411 45.5164 43.001 42.6236 44.9302 39.3C49.9302 30.96 49.3702 33.21 49.9302 28.37C50.152 26.126 49.8999 23.8604 49.1902 21.72C48.5532 19.6633 48.0948 17.5555 47.8202 15.42C47.6596 13.9872 47.3854 12.5694 47.0002 11.18C46.1702 8.9 35.0002 0.13 32.4902 0C30.3306 0.0212884 28.1778 0.245609 26.0602 0.67C26.0602 0.67 17.3802 0.81 16.6602 1Z" fill="#19A6B8"/>
<path d="M0.320218 18.4799C0.0795453 18.9874 -0.0300801 19.5471 0.00136448 20.1078C0.0328091 20.6686 0.204321 21.2125 0.500218 21.6899L0.650218 21.8899C1.07022 22.3899 0.650218 25.1699 0.650218 27.4899C0.657328 28.6082 0.573721 29.7252 0.400218 30.8299C0.395336 30.8798 0.395336 30.93 0.400218 30.9799C0.280218 31.8499 -0.189782 35.5099 1.61022 36.7899C3.41022 38.0699 5.46022 39.2699 6.30022 40.6899C7.00022 41.8899 7.84022 44.5799 14.8102 47.9999C17.3974 49.2875 20.2614 49.9194 23.1502 49.8399C24.2002 49.8399 25.4302 49.8399 26.7602 49.8399C28.3502 49.9199 29.7602 49.9299 30.8802 49.9099C33.1928 49.8859 35.4417 49.149 37.3202 47.7999C40.411 45.5163 43.001 42.6235 44.9302 39.2999C47.0402 35.7699 48.1502 34.1399 48.7802 33.0699C48.6702 33.3299 7.24022 8.4199 7.22022 8.3999C4.54022 11.6999 1.51022 15.8199 0.320218 18.4799Z" fill="#2EA5B1"/>
<path d="M48.6702 27.3401C48.3402 25.6801 48.5302 25.5701 48.2402 24.5301C47.9632 23.7019 47.7394 22.8569 47.5702 22.0001C47.2902 20.4901 47.6702 20.1801 46.8102 17.4101C45.9502 14.6401 46.6702 16.2701 46.4802 14.7001C46.2902 13.1301 46.4802 13.2901 46.1002 12.4301C45.7202 11.5701 40.5002 7.18014 35.9402 4.00014C34.6702 3.13014 35.1402 2.10014 32.2302 1.37014C29.3202 0.640141 28.5802 2.12014 26.1502 1.66014C23.7202 1.20014 24.0802 1.98014 21.8602 2.03014C19.6402 2.08014 16.8602 2.49014 15.3302 3.82014C13.8002 5.15014 10.7402 8.56014 10.7002 8.61014C10.7002 8.61014 7.76017 14.0001 7.40017 16.7301C7.17716 18.4797 7.17716 20.2506 7.40017 22.0001C7.47017 23.6501 7.18017 23.4101 7.86017 25.4501C8.54017 27.4901 8.26017 27.8201 8.96017 30.1401C9.66017 32.4601 11.0002 32.2201 11.8302 34.8001C12.6602 37.3801 15.0002 34.5701 15.0002 36.5301C15.0002 38.4901 17.9102 38.3701 18.5502 38.8701C19.1902 39.3701 15.4302 43.1501 17.1302 44.0001C18.8302 44.8501 24.7002 44.8201 27.9502 45.6601C31.2002 46.5001 36.9502 45.4001 38.1202 45.3301C39.2902 45.2601 41.2802 42.1301 42.2102 41.4201C43.1402 40.7101 48.8102 33.2701 48.8102 33.2701C49.0282 32.0729 49.1254 30.8568 49.1002 29.6401C49.1502 27.4501 49.0002 29.0001 48.6702 27.3401Z" fill="#1C6B77"/>
<path d="M39.0001 19.2901C35.3401 8.06013 25.4601 1.25013 17.0001 4.08013C8.54014 6.91013 4.50014 18.3001 8.16014 29.5401C8.75129 31.3395 9.52183 33.0749 10.4601 34.7201C12.2401 33.4001 12.0001 32.2701 12.0001 32.2701C12.0001 32.2701 13.6401 30.0001 14.3001 30.8501C14.9601 31.7001 14.9601 31.4001 15.1201 32.2701C15.2801 33.1401 16.9901 32.7001 15.1201 34.0601C13.2501 35.4201 16.2501 33.8601 13.2501 35.4101C12.641 35.7229 12.0052 35.9806 11.3501 36.1801C16.0601 43.2701 23.5501 46.9701 30.2201 44.7501C38.7401 41.9201 42.6701 30.5201 39.0001 19.2901Z" fill="#138297"/>
<path d="M9.54027 35.3102C7.35027 36.5402 9.06027 36.8602 11.3503 36.1802C11.0403 35.7102 10.7503 35.1802 10.4603 34.7202C10.1671 34.9372 9.85975 35.1343 9.54027 35.3102Z" fill="#207A87"/>
<path d="M15.1204 34.0599C16.9904 32.6999 15.2704 33.1299 15.1204 32.2699C14.9704 31.4099 14.2704 32.2698 13.6104 31.3998C12.9504 30.5298 12.0204 32.2699 12.0204 32.2699C12.0204 32.2699 12.2404 33.3999 10.4604 34.7199C10.7504 35.2199 11.0404 35.7199 11.3504 36.1799C12.0055 35.9804 12.6413 35.7227 13.2504 35.4099C16.2504 33.8599 13.2504 35.4099 15.1204 34.0599Z" fill="#0A6977"/>
<path d="M33.6504 32.6298C33.6504 32.6298 38.1704 34.3698 40.0904 33.9498C42.0104 33.5298 42.0904 32.1698 43.3104 30.6098C43.7804 30.0198 43.5704 29.1198 45.0804 28.6798C46.5904 28.2398 43.5104 24.7798 43.5104 24.7798L33.6504 32.6298Z" fill="#144C54"/>
<path d="M34.6401 8.77979C34.6401 8.77979 27.7901 10.3198 27.5301 14.9998C27.4201 17.0998 26.1401 17.7098 25.6701 18.9298C25.3861 19.8442 24.9537 20.7057 24.3901 21.4798C23.6501 22.5398 23.6501 25.6098 23.8701 26.6898C24.0949 27.7482 24.6952 28.6895 25.5601 29.3398C26.5601 30.3398 27.3201 30.4098 29.7801 31.1098C32.2401 31.8098 32.3701 32.4498 34.0001 32.6998C35.2687 32.9397 36.5776 32.8516 37.8026 32.4439C39.0277 32.0361 40.1283 31.3222 41.0001 30.3698L34.6401 8.77979Z" fill="#3DAAB2"/>
<path d="M30.6702 44.4401C30.3473 44.8597 29.9929 45.2542 29.6102 45.6201C28.2823 47.0463 26.4795 47.9388 24.5402 48.1301C22.2802 48.1301 17.2202 47.9801 15.3502 46.9601C13.6991 45.8658 12.2845 44.4512 11.1902 42.8001C11.1247 41.8279 11.1247 40.8523 11.1902 39.8801C11.1902 39.8801 11.8602 38.5901 14.5602 38.8801C14.8915 38.9263 15.2257 38.9497 15.5602 38.9501C18.6102 38.9501 20.3002 37.1801 21.7802 37.4701C23.4202 37.7801 28.2502 39.2001 29.0302 39.8301C29.8102 40.4601 32.0502 42.6301 30.6702 44.4401Z" fill="#59BBCE"/>
<path d="M30.3101 44.5598C29.0001 46.2698 26.6501 47.9998 24.6701 47.9998C21.3501 47.9998 17.2701 47.7098 15.7801 46.8998C14.2681 45.8729 12.9566 44.5783 11.9101 43.0798C11.8659 42.2471 11.8659 41.4126 11.9101 40.5798C12.1719 40.361 12.4749 40.1968 12.8013 40.0972C13.1276 39.9976 13.4707 39.9645 13.8101 39.9998C14.0743 39.9978 14.3383 40.0145 14.6001 40.0498C14.9681 40.0981 15.3389 40.1214 15.7101 40.1198C17.1579 40.0815 18.5817 39.7409 19.8901 39.1198C20.4243 38.856 20.9989 38.6836 21.5901 38.6098C21.663 38.5995 21.7371 38.5995 21.8101 38.6098C23.0363 38.8811 24.2479 39.2148 25.4401 39.6098C26.5951 39.9096 27.7148 40.332 28.7801 40.8698C29.0801 41.0898 31.4501 43.0698 30.3101 44.5598Z" fill="#15424D"/>
<path d="M25.9203 42.6401C25.6598 43.3925 25.2324 44.0762 24.6703 44.6401C24.3385 44.9037 23.9558 45.0957 23.5462 45.2042C23.1366 45.3126 22.709 45.3351 22.2903 45.2701C21.1569 44.9009 19.9867 44.6561 18.8003 44.5401C17.8003 44.5401 15.8003 45.0601 14.8603 44.5401C13.9203 44.0201 14.3403 43.5401 13.8603 42.8501C13.3803 42.1601 13.8603 40.0501 13.8603 40.0501C14.1245 40.0481 14.3885 40.0648 14.6503 40.1001C15.0183 40.1484 15.3892 40.1717 15.7603 40.1701C17.2081 40.1318 18.6319 39.7912 19.9403 39.1701C20.4745 38.9063 21.0491 38.7339 21.6403 38.6601C21.7133 38.6497 21.7873 38.6497 21.8603 38.6601C23.0866 38.9314 24.2981 39.2651 25.4903 39.6601L25.9503 40.4501C26.0682 41.1763 26.0581 41.9175 25.9203 42.6401Z" fill="#002931"/>
<path d="M4.00025 36.84H3.79025C3.41024 36.72 1.60025 35.72 1.39025 35.18C1.35104 35.0769 1.35104 34.963 1.39025 34.86C1.42924 34.501 1.42924 34.1389 1.39025 33.78V33.64L1.46025 33.53C1.47569 33.3937 1.47569 33.2562 1.46025 33.12C1.38347 32.7176 1.447 32.3011 1.64025 31.94C1.72638 31.8277 1.83917 31.7387 1.96839 31.6811C2.09762 31.6235 2.23918 31.599 2.38025 31.61C2.59305 31.6151 2.80451 31.6453 3.01025 31.7C3.55822 31.8276 4.11225 31.9278 4.67025 32C5.85024 32.2 6.67025 32.33 6.67025 33.12C6.68854 33.3065 6.72539 33.4907 6.78025 33.67C6.92612 33.9808 6.95693 34.3334 6.8672 34.6648C6.77747 34.9963 6.57302 35.2851 6.29025 35.48L5.91024 35.78C5.38025 36.2983 4.72051 36.6645 4.00025 36.84Z" fill="#299781"/>
<path d="M1.61045 33.7098C1.91045 33.2598 1.01045 31.4798 2.93045 31.9798C4.85045 32.4798 6.39045 32.3698 6.43045 33.1498C6.47045 33.9298 7.07045 34.5498 6.17045 35.2198C5.27045 35.8898 4.38045 36.6798 3.87045 36.5098C3.36045 36.3398 1.53045 35.2198 1.61045 34.9398C1.65678 34.5311 1.65678 34.1185 1.61045 33.7098Z" fill="#167280"/>
<path d="M11.64 18.1401L11 18.6801H10.88H10.75C10.4235 18.7666 10.0877 18.8136 9.75 18.8201C9.29201 18.8522 8.83779 18.7183 8.4705 18.4428C8.10321 18.1673 7.84743 17.7688 7.75 17.3201C7.75 17.3201 7.78 21.0001 13 21.0001C15.0571 20.9863 17.1099 20.8124 19.14 20.4801C19.0397 18.2311 18.6292 16.0067 17.92 13.8701C15.7402 15.1619 13.6428 16.588 11.64 18.1401Z" fill="#358891"/>
<path d="M17.7101 13.2702C17.384 12.3842 16.9895 11.525 16.5301 10.7002C16.3201 10.3402 16.1201 9.9902 15.9101 9.7002C14.6101 9.8902 12.5101 12.0702 11.2701 14.0402C11.0583 14.3843 10.8998 14.7586 10.8001 15.1502C10.702 15.5866 10.693 16.0383 10.7738 16.4782C10.8546 16.9181 11.0234 17.3371 11.2701 17.7102C11.2701 17.7102 12.9601 16.3802 15.0101 14.9902C16.0101 14.3302 16.9501 13.7802 17.7301 13.3402L17.7101 13.2702Z" fill="#0F363F"/>
<path d="M16 5.51979C18.2002 5.48963 20.3996 5.62333 22.58 5.91979C24.15 6.30979 25.37 5.91979 25.87 7.29979C26.03 7.71979 25.98 7.87979 26.21 8.77979C26.5147 9.66758 26.5735 10.6213 26.38 11.5398C26.09 12.7298 24.71 17.9098 21.23 19.5998" fill="#1C6B77"/>
<path d="M23.4804 11.6699C23.2404 7.28992 21.6804 6.66992 21.6804 6.66992C22.0019 6.90965 22.2539 7.23064 22.4104 7.59992C22.5137 7.86078 22.5646 8.1394 22.5604 8.41992C22.5604 11.9499 20.1704 12.7399 20.0604 12.7699C19.3143 13.0752 18.5923 13.4362 17.9004 13.8499C18.6095 15.9866 19.0201 18.2109 19.1204 20.4599C20.1985 20.2866 21.1961 19.7826 21.9754 19.0176C22.7546 18.2527 23.277 17.2646 23.4704 16.1899C23.6273 14.6875 23.6306 13.173 23.4804 11.6699Z" fill="#247275"/>
<path d="M22.5201 7.77011C22.3689 7.39771 22.1159 7.07541 21.7901 6.84011C20.5701 5.90011 18.2501 5.71011 16.1001 5.71011C15.1098 5.66606 14.1199 5.80505 13.1801 6.12011C13.0901 6.12011 12.8801 6.29011 12.8801 6.29011C12.3901 6.48011 10.6901 7.20011 9.19007 10.0901C8.08655 12.0443 7.58881 14.2824 7.76007 16.5201C7.7638 16.8844 7.8108 17.2469 7.90007 17.6001C7.99441 18.0408 8.24231 18.4336 8.59951 18.7083C8.95671 18.9831 9.39994 19.122 9.85007 19.1001C10.1887 19.0962 10.5252 19.0458 10.8501 18.9501H10.9801H11.1101L11.7401 18.4101C13.7372 16.817 15.8276 15.3444 18.0001 14.0001C18.692 13.5893 19.414 13.2316 20.1601 12.9301C20.2701 12.9301 22.6501 12.1001 22.6501 8.57011C22.6593 8.29752 22.6152 8.02574 22.5201 7.77011ZM20.0001 12.3401C20.0001 12.3401 19.1501 12.7301 17.8301 13.4701C17.0601 13.9001 16.1301 14.4701 15.1201 15.1201C13.1201 16.5101 11.3801 17.8401 11.3801 17.8401L10.8201 18.3101C9.24007 18.7901 8.49007 18.0901 8.17007 17.4101C8.05208 17.1684 7.9776 16.9077 7.95007 16.6401C7.78338 14.3866 8.25103 12.1315 9.30007 10.1301C10.9001 7.00011 12.8801 6.41011 12.8801 6.41011C13.7901 5.63011 19.3501 5.52011 21.3301 7.21011C21.5457 7.37315 21.7216 7.58291 21.8445 7.82365C21.9675 8.06439 22.0344 8.32985 22.0401 8.60011C22.0501 11.6901 20.0001 12.3401 20.0001 12.3401Z" fill="#1298B3"/>
<path d="M22.4102 7.56989C22.2537 7.2006 22.0018 6.87962 21.6803 6.63989C20.4503 5.70989 18.1302 5.51989 15.9802 5.51989C14.9941 5.4772 14.0083 5.6127 13.0702 5.91989L12.7702 6.08989C12.2402 6.29989 10.5302 6.99989 9.00025 9.90989C7.91085 11.8723 7.4239 14.1123 7.60025 16.3499C7.63153 16.6878 7.69175 17.0223 7.78025 17.3499C7.87768 17.7985 8.13346 18.1971 8.50075 18.4726C8.86804 18.748 9.32226 18.882 9.78025 18.8499C10.118 18.8434 10.4537 18.7964 10.7802 18.7099H10.9102H11.0302L11.6702 18.1699C13.6652 16.6013 15.7559 15.1585 17.9303 13.8499C18.6221 13.4362 19.3442 13.0752 20.0903 12.7699C20.2002 12.7699 22.5903 11.9499 22.5903 8.41989C22.589 8.12723 22.5277 7.83793 22.4102 7.56989ZM19.8802 12.1399C19.8802 12.1399 19.0202 12.5399 17.7102 13.2699C16.9302 13.7099 16.0002 14.2699 14.9902 14.9199C12.9402 16.3099 11.2502 17.6399 11.2502 17.6399L10.7002 18.1199C9.11025 18.5899 8.36025 17.8899 8.04025 17.2099C7.92449 16.9673 7.85013 16.707 7.82025 16.4399C7.6533 14.1896 8.12102 11.9376 9.17025 9.93989C10.7802 6.83989 12.7602 6.20989 12.7602 6.20989C13.6602 5.43989 19.2203 5.32989 21.2003 7.00989C21.4159 7.17293 21.5918 7.38269 21.7147 7.62342C21.8377 7.86416 21.9045 8.12962 21.9102 8.39989C21.9303 11.4999 19.8802 12.1399 19.8802 12.1399Z" fill="#59BBCE"/>
<path d="M21.2203 6.99998C19.2203 5.31998 13.6803 5.42998 12.7803 6.19998C14.0315 7.12668 15.0939 8.28414 15.9103 9.60998C16.5551 9.54131 17.2054 9.54131 17.8503 9.60998H18.1403C18.4191 9.6616 18.685 9.76787 18.9226 9.92269C19.1602 10.0775 19.3649 10.2778 19.5247 10.512C19.6846 10.7462 19.7966 11.0098 19.8541 11.2875C19.9117 11.5652 19.9138 11.8515 19.8603 12.13C19.8603 12.13 21.9103 11.49 21.9103 8.37998C21.9054 8.11306 21.841 7.8506 21.7216 7.61182C21.6022 7.37304 21.4309 7.16399 21.2203 6.99998Z" fill="#115965"/>
<path d="M15.8902 9.63022C15.0738 8.30438 14.0114 7.14692 12.7602 6.22021C12.7602 6.22021 10.7602 6.85021 9.17017 9.95021C8.12094 11.9479 7.65322 14.1999 7.82017 16.4502C7.85005 16.7174 7.92441 16.9776 8.04017 17.2202C8.36017 17.9002 9.11017 18.6002 10.7002 18.1302L11.2502 17.6502C11.0034 17.2772 10.8346 16.8581 10.7538 16.4182C10.6731 15.9783 10.682 15.5266 10.7802 15.0902C10.8818 14.7055 11.0402 14.3382 11.2502 14.0002C12.4902 12.0002 14.5902 9.85021 15.8902 9.66021V9.63022Z" fill="#196C7B"/>
<path d="M18.1602 9.61986H17.8702C17.2253 9.55119 16.575 9.55119 15.9302 9.61986C16.1402 9.92986 16.3402 10.2799 16.5502 10.6199C17.0095 11.4446 17.4041 12.3039 17.7302 13.1899C19.0402 12.4599 19.9002 12.0599 19.9002 12.0599C19.9847 11.5067 19.8503 10.9424 19.5253 10.4867C19.2004 10.0311 18.7107 9.72015 18.1602 9.61986Z" fill="#0F363F"/>
<path d="M43.7701 25.2C42.0901 22.5 40.1401 21.08 40.1401 19.82C40.1401 18.56 41.0701 16.51 40.1401 13.74C39.2101 10.97 39.5301 9.45004 36.8901 8.82004C36.1015 8.64469 35.2841 8.64331 34.4948 8.81601C33.7056 8.98871 32.9635 9.33134 32.3201 9.82004C32.0208 10.0907 31.7401 10.3814 31.4801 10.69L31.3901 10.81C31.4901 10.92 31.6001 11.06 31.7401 11.2C32.0427 10.7879 32.377 10.4 32.7401 10.04C33.684 9.39168 34.7954 9.03047 35.9401 9.00004C36.277 9.00181 36.6125 9.04207 36.9401 9.12004C38.7001 9.54004 38.9401 10.45 39.4701 12.28C39.6101 12.76 39.7601 13.28 39.9401 13.84C40.4008 15.3122 40.4492 16.8823 40.0801 18.38C40.0187 18.8206 39.9919 19.2653 40.0001 19.71C40.0001 20.71 40.7001 21.51 41.6601 22.66C42.3833 23.5098 43.0513 24.405 43.6601 25.34C44.5201 26.7 44.0401 27.12 42.8801 28.13C42.2165 28.6699 41.6309 29.2992 41.1401 30C40.9778 30.244 40.7667 30.4517 40.5201 30.61C40.5266 30.6732 40.5266 30.7369 40.5201 30.8C40.8208 30.5827 41.0784 30.3114 41.2801 30C42.6901 27.79 45.2801 27.61 43.7701 25.2Z" fill="#59BBCE"/>
<path d="M33.0002 12.81L33.2402 12.72C33.7921 12.5868 34.3689 12.5978 34.9153 12.7519C35.4617 12.906 35.9593 13.198 36.3602 13.6C36.8632 14.5664 37.124 15.6405 37.1202 16.73C36.9513 17.8738 36.9513 19.0362 37.1202 20.18C37.9802 20.7855 38.7027 21.5659 39.2402 22.47C39.3091 23.6583 39.1875 24.85 38.8802 26C38.9802 26.19 39.1202 26.41 39.3102 26.7C40.0902 27.91 39.8302 28.32 40.2002 29.24C40.3781 29.6909 40.486 30.1664 40.5202 30.65C40.7668 30.4917 40.9779 30.284 41.1402 30.04C41.6248 29.3405 42.2036 28.7112 42.8602 28.17C44.0202 27.17 44.5002 26.74 43.6402 25.38C43.0314 24.4449 42.3633 23.5497 41.6402 22.7C40.6402 21.55 39.9802 20.7 39.9802 19.75C39.9996 19.2894 40.0565 18.8313 40.1502 18.38C40.5236 16.8687 40.4716 15.2836 40.0002 13.8C39.8202 13.24 39.6702 12.72 39.5302 12.24C39.0002 10.41 38.7402 9.49996 37.0002 9.07996C36.6725 9.00199 36.337 8.96173 36.0002 8.95996C34.8281 8.97483 33.6867 9.33673 32.7202 9.99996C32.3571 10.3599 32.0227 10.7478 31.7202 11.16C32.1202 11.65 32.5802 12.22 33.0002 12.81Z" fill="#196C7B"/>
<path d="M34.1703 19.6398C34.7438 20.3672 35.3868 21.0371 36.0903 21.6398C36.8703 22.4298 37.3403 22.6398 37.6503 23.3998C37.8016 23.87 38.0098 24.32 38.2703 24.7398C38.5903 25.2598 38.5703 25.3698 38.8803 25.9198C39.1867 24.7832 39.3116 23.6054 39.2503 22.4298C38.7127 21.5257 37.9903 20.7454 37.1303 20.1398C36.9614 18.996 36.9614 17.8336 37.1303 16.6898C37.134 15.6003 36.8732 14.5262 36.3703 13.5598C35.9693 13.1579 35.4718 12.8658 34.9254 12.7117C34.379 12.5576 33.8021 12.5466 33.2503 12.6798L33.0103 12.7698C33.5507 13.4375 33.9458 14.2106 34.1703 15.0398C34.3703 16.6498 33.3403 18.5398 34.1703 19.6398Z" fill="#0F363F"/>
<path d="M40.3701 30.6098C39.3451 31.1893 38.1758 31.4634 37.0001 31.3998C35.9752 31.4317 34.9545 31.2548 34.0001 30.8798C33.2601 30.5132 32.4434 29.2965 31.5501 27.2298L31.4501 26.9898C31.0901 26.1298 30.7101 25.1298 30.3201 23.9898C29.9363 22.3453 29.9363 20.6344 30.3201 18.9898C30.4991 17.9796 30.5894 16.9557 30.5901 15.9298C30.5838 15.5348 30.5301 15.142 30.4301 14.7598C30.4245 14.6732 30.4245 14.5864 30.4301 14.4998C30.4247 13.286 30.8499 12.1097 31.6301 11.1798C31.5001 11.0398 31.5001 10.9298 31.4001 10.8198C30.5901 11.8198 29.4801 13.3498 29.8701 14.9098C30.4701 17.4298 28.7601 21.1898 29.7701 24.1698C30.1101 25.1698 30.4801 26.1698 30.8901 27.1698C31.7301 29.1698 32.7101 30.8998 33.7601 31.4298C34.8462 31.8251 36.007 31.9728 37.1575 31.8621C38.308 31.7514 39.4193 31.385 40.4101 30.7898C40.4101 30.7898 40.3801 30.7298 40.3701 30.6098Z" fill="#1298B3"/>
<path d="M40.5202 30.61C39.5036 31.1829 38.3457 31.4568 37.1802 31.4C36.1555 31.4292 35.1353 31.2524 34.1802 30.88C33.4502 30.51 32.6302 29.29 31.7402 27.23L31.6402 26.99C31.2802 26.13 30.9002 25.13 30.5102 23.99C30.1264 22.3455 30.1264 20.6346 30.5102 18.99C30.6842 17.9792 30.7745 16.9557 30.7802 15.93C30.764 15.5359 30.7104 15.1441 30.6202 14.76C30.6098 14.6737 30.6098 14.5864 30.6202 14.5C30.6095 13.2854 31.0354 12.1072 31.8202 11.18C31.6802 11.04 31.5702 10.9 31.4702 10.79C30.6602 11.79 29.6702 13.35 30.0602 14.91C30.6702 17.43 28.9502 21.19 29.9702 24.17C30.3102 25.17 30.6802 26.17 31.0902 27.17C31.9302 29.17 32.9102 30.9 33.9502 31.43C35.0363 31.8253 36.1971 31.973 37.3476 31.8623C38.4981 31.7516 39.6094 31.3852 40.6002 30.79C40.5799 30.7274 40.5531 30.6671 40.5202 30.61Z" fill="#59BBCE"/>
<path d="M39.3104 26.66C39.1204 26.37 38.9804 26.15 38.8804 25.96C38.8804 26.18 38.8103 26.39 38.7803 26.56C38.6303 27.66 34.5704 29.19 32.5404 27.56C32.2513 27.3321 31.9397 27.1344 31.6104 26.97L31.7104 27.21C32.6004 29.27 33.4204 30.49 34.1504 30.86C35.1055 31.2323 36.1256 31.4091 37.1504 31.38C38.3159 31.4367 39.4737 31.1629 40.4904 30.59C40.4561 30.1064 40.3482 29.6309 40.1703 29.18C39.8303 28.28 40.0904 27.87 39.3104 26.66Z" fill="#0E5A65"/>
<path d="M30.54 14.5099C30.5296 14.5963 30.5296 14.6836 30.54 14.7699C30.6303 15.154 30.6838 15.5458 30.7 15.9399C30.7 15.7899 31.47 13.4999 32.97 12.8099C32.54 12.2199 32.08 11.6499 31.7 11.1899C30.9296 12.1228 30.5182 13.3003 30.54 14.5099Z" fill="#0E5A65"/>
<path d="M38.78 26.5601C38.78 26.3901 38.84 26.1801 38.88 25.9601C38.57 25.4101 38.59 25.3001 38.27 24.7801C38.0096 24.3603 37.8014 23.9103 37.65 23.4401C37.34 22.6801 36.87 22.4401 36.09 21.6801C35.3865 21.0773 34.7435 20.4075 34.17 19.6801C33.34 18.5801 34.37 16.6801 34.17 15.1201C33.9478 14.276 33.549 13.4886 33 12.8101C31.5 13.5001 30.77 15.8101 30.73 15.9401C30.7276 16.9655 30.6406 17.9889 30.47 19.0001C30.0862 20.6446 30.0862 22.3555 30.47 24.0001C30.86 25.1401 31.24 26.1401 31.6 27.0001C31.9293 27.1645 32.2409 27.3622 32.53 27.5901C34.57 29.1901 38.63 27.6601 38.78 26.5601Z" fill="#032C35"/>
<path d="M49.1702 21.8C48.5332 19.7433 48.0748 17.6355 47.8002 15.5C47.6504 14.0408 47.3828 12.5961 47.0002 11.18C46.1702 8.9 35.0002 0.13 32.4902 0C30.3306 0.0212884 28.1778 0.245609 26.0602 0.67C26.0602 0.67 17.3802 0.8 16.6602 1.01C14.8509 1.47561 13.1516 2.29468 11.6602 3.42C10.0711 4.98648 8.58783 6.65683 7.22021 8.42C7.22021 8.42 10.5902 5.02 12.2202 3.64C13.8502 2.26 17.0002 1.88 19.4002 1.82C21.8002 1.76 21.7402 1.99 24.4002 2.46C27.0602 2.93 27.4002 0.97 30.5302 1.7C33.6602 2.43 33.3802 2.93 34.7602 3.8C39.7602 6.97 45.4202 11.34 45.8302 12.21C46.2402 13.08 46.0402 12.93 46.2502 14.5C46.4602 16.07 45.6802 14.45 46.6102 17.23C47.5402 20.01 47.1302 20.32 47.4502 21.84C47.6279 22.7129 47.8685 23.5718 48.1702 24.41C48.4802 25.46 48.2802 25.56 48.6402 27.24C49.0002 28.92 48.0802 27.56 48.5202 29.67C48.8447 30.7998 48.9365 31.9837 48.7902 33.15C49.6602 31.68 49.6102 31.24 49.9202 28.45C50.1387 26.2053 49.8832 23.9397 49.1702 21.8Z" fill="#41D6E1"/>
<path d="M10.3002 24.8802C11.0237 24.8802 11.6102 24.2892 11.6102 23.5602C11.6102 22.8312 11.0237 22.2402 10.3002 22.2402C9.57674 22.2402 8.99023 22.8312 8.99023 23.5602C8.99023 24.2892 9.57674 24.8802 10.3002 24.8802Z" fill="#136470"/>
<path d="M19.7302 22.8502C19.5602 21.8502 18.6002 20.8502 19.7302 21.0102C20.8602 21.1702 21.4302 20.1202 22.3102 20.7502C23.1902 21.3802 22.9802 20.8502 23.3102 22.3202C23.6402 23.7902 23.1302 24.5002 22.5102 24.8802C21.8902 25.2602 21.7802 24.7802 20.9002 25.2802C20.0202 25.7802 19.5302 26.5702 19.2202 25.5702C19.1202 25.2184 19.1187 24.8459 19.2156 24.4933C19.3126 24.1407 19.5044 23.8214 19.7702 23.5702C19.9202 23.4202 19.7302 22.8502 19.7302 22.8502Z" fill="#1E4E57"/>
<path d="M17.51 37.3398C17.51 37.3398 19.65 31.8398 23.05 31.9098C26.45 31.9798 26 35.4098 27 36.1798C28 36.9498 28.46 38.1798 26.48 38.1798C24.5 38.1798 23.57 36.6498 22.24 36.6298C20.91 36.6098 20.13 36.4498 19.12 37.0798C18.11 37.7098 18.07 37.4698 17.71 37.4698C17.35 37.4698 17.51 37.3398 17.51 37.3398Z" fill="#084F59"/>
<path d="M43.3602 33.43C43.3602 33.43 43.3602 32.83 43.8802 32.8C44.4002 32.77 44.8802 32.8 45.0402 33.12C45.1186 33.7873 44.9857 34.4623 44.6602 35.05C44.3502 35.47 43.5302 36.05 43.1002 36.53C42.6702 37.01 42.1002 37.99 41.9002 37.17C41.7002 36.35 41.7202 35.86 42.2402 35.43C42.6269 35.0372 42.891 34.5404 43.0002 34C43.0828 33.7889 43.205 33.5954 43.3602 33.43Z" fill="#14869A"/>
<path d="M45.54 31.91C45.7112 31.91 45.85 31.6593 45.85 31.35C45.85 31.0408 45.7112 30.79 45.54 30.79C45.3688 30.79 45.23 31.0408 45.23 31.35C45.23 31.6593 45.3688 31.91 45.54 31.91Z" fill="#14869A"/>
</g>
<defs>
<clipPath id="clip0_6_2722">
<rect width="50" height="50" fill="white"/>
</clipPath>
</defs>
</svg>
