<svg width="24" height="24" viewBox="0 0 24 24" fill="none" xmlns="http://www.w3.org/2000/svg">
<path fill-rule="evenodd" clip-rule="evenodd" d="M22 12C22 17.5228 17.5228 22 12 22C6.47715 22 2 17.5228 2 12C2 6.47715 6.47715 2 12 2C17.5228 2 22 6.47715 22 12ZM9.70245 8.6413C9.40956 8.34841 8.93468 8.34841 8.64179 8.6413C8.3489 8.93419 8.3489 9.40907 8.64179 9.70196L10.9399 12.0001L8.64179 14.2981C8.3489 14.591 8.3489 15.0659 8.64179 15.3588C8.93468 15.6517 9.40955 15.6517 9.70245 15.3588L12.0005 13.0607L14.2986 15.3588C14.5915 15.6517 15.0664 15.6517 15.3593 15.3588C15.6522 15.0659 15.6522 14.591 15.3593 14.2981L13.0612 12.0001L15.3593 9.70196C15.6522 9.40906 15.6522 8.93419 15.3593 8.6413C15.0664 8.34841 14.5915 8.34841 14.2986 8.6413L12.0005 10.9394L9.70245 8.6413Z" fill="#31324B"/>
</svg>
