<svg width="24" height="29" viewBox="0 0 24 29" fill="none" xmlns="http://www.w3.org/2000/svg">
<path d="M3.1067 19.2385C2.81318 17.9575 2.66558 16.6474 2.6667 15.3332C2.6667 8.54916 6.53737 2.75183 12 0.423828C17.4627 2.75183 21.3334 8.54916 21.3334 15.3332C21.3334 16.6798 21.1814 17.9878 20.8934 19.2385L23.5867 21.6332C23.7026 21.7363 23.779 21.8766 23.8026 22.0299C23.8262 22.1832 23.7956 22.34 23.716 22.4732L20.4387 27.9345C20.3865 28.0213 20.3153 28.095 20.2304 28.1502C20.1454 28.2053 20.0491 28.2404 19.9486 28.2527C19.8481 28.265 19.7461 28.2543 19.6504 28.2214C19.5546 28.1884 19.4676 28.1341 19.396 28.0625L16.3907 25.0572C16.1407 24.8071 15.8016 24.6666 15.448 24.6665H8.55204C8.19844 24.6666 7.85936 24.8071 7.60937 25.0572L4.60404 28.0625C4.53243 28.1341 4.44546 28.1884 4.34972 28.2214C4.25398 28.2543 4.152 28.265 4.0515 28.2527C3.951 28.2404 3.85464 28.2053 3.76971 28.1502C3.68479 28.095 3.61354 28.0213 3.56137 27.9345L0.284038 22.4745C0.204139 22.3412 0.173335 22.1841 0.19695 22.0305C0.220566 21.8769 0.297118 21.7363 0.413371 21.6332L3.1067 19.2385V19.2385ZM12 15.3332C12.7073 15.3332 13.3856 15.0522 13.8857 14.5521C14.3858 14.052 14.6667 13.3737 14.6667 12.6665C14.6667 11.9593 14.3858 11.281 13.8857 10.7809C13.3856 10.2808 12.7073 9.99983 12 9.99983C11.2928 9.99983 10.6145 10.2808 10.1144 10.7809C9.61432 11.281 9.33337 11.9593 9.33337 12.6665C9.33337 13.3737 9.61432 14.052 10.1144 14.5521C10.6145 15.0522 11.2928 15.3332 12 15.3332Z" fill="white"/>
</svg>
